<?xml version="1.0" encoding="utf-8"?>
<!-- Generator: Adobe Illustrator 25.3.1, SVG Export Plug-In . SVG Version: 6.00 Build 0)  -->
<svg version="1.1" id="Layer_1" xmlns="http://www.w3.org/2000/svg" xmlns:xlink="http://www.w3.org/1999/xlink" x="0px" y="0px"
	 viewBox="0 0 1000.3 1000" style="enable-background:new 0 0 1000.3 1000;" xml:space="preserve">
<style type="text/css">
	.st0{fill:#FFFFFF;}
	.st1{fill:#998498;}
	.st2{fill:#3C3835;}
	.st3{fill:#AAB2A7;}
</style>
<path class="st0" d="M873.8,1000H126.2C56.5,1000,0,943.5,0,873.8V126.2C0,56.5,56.5,0,126.2,0h747.6C943.5,0,1000,56.5,1000,126.2
	v747.6C1000,943.5,943.5,1000,873.8,1000z"/>
<g>
	<path class="st1" d="M875.2,200.1V500L500.3,125.1h299.9C841.6,125.1,875.2,158.7,875.2,200.1z"/>
	<path class="st2" d="M875.2,500H575.3c-41.4,0-75-33.6-75-75l0,0V125.1L875.2,500z"/>
	<path class="st3" d="M537.8,387.5l224.9-224.9c20.7-20.7,54.3-20.7,75,0l0,0c20.7,20.7,20.7,54.3,0,75L612.7,462.5
		c-20.7,20.7-54.3,20.7-75,0l0,0C517.1,441.8,517.1,408.2,537.8,387.5z"/>
	<path class="st1" d="M125.4,125.1h298.5c27.3,0,40.4,33.4,20.4,52L312.8,299.3H125.4V125.1z"/>
	<path class="st3" d="M125.4,500h298.5c27.3,0,40.4-33.4,20.4-52L312.8,325.8H125.4V500z"/>
	<path class="st2" d="M125.4,299.3h187.4c-7.3,6.5-7.9,17.8-1.4,25.1c0.4,0.5,0.9,1,1.4,1.4H125.4V299.3z"/>
	<circle class="st3" cx="216.4" cy="212.2" r="37.5"/>
	<circle class="st1" cx="219.1" cy="412.9" r="37.5"/>
	<path class="st2" d="M125.2,500h301.6c27,0,40.6,32.7,21.5,51.8L334.1,666c-11.8,11.8-11.8,31.1,0,42.9c0,0,0,0,0,0l114.2,114.2
		c19.1,19.1,5.5,51.8-21.5,51.8H125.2V500z"/>
	<path class="st1" d="M125.2,500L125.2,500c51.9,0,94,42.1,94,94l0,0v93.5h-93.7L125.2,500z"/>
	<path class="st3" d="M125.2,874.9L125.2,874.9c51.9,0,94-42.1,94-94l0,0v-93.5h-93.7L125.2,874.9z"/>
	<polygon class="st1" points="500,500 500,874.9 874.9,500 	"/>
	<path class="st2" d="M500,874.9h299.9c41.4,0,75-33.6,75-75V500L500,874.9z"/>
	<path class="st3" d="M645.9,729l127.4,128.6c23,23,60.2,23,83.1,0l0,0c23-23,23-60.2,0-83.2c0,0,0,0,0,0
		c-49-49-127.4-128.6-127.4-128.6L645.9,729z"/>
</g>
</svg>
