<svg xmlns="http://www.w3.org/2000/svg" viewBox="0 0 1000.32 1000"><path d="M1000,100V500L500,0H900A100,100,0,0,1,1000,100Z" transform="translate(0.32 0)" style="fill:#998498"/><path d="M1000,500H600A100,100,0,0,1,500,400V0Z" transform="translate(0.32 0)" style="fill:#3c3835"/><rect x="467.16" y="179.29" width="565.69" height="141.42" rx="70.71" transform="translate(43.22 603.55) rotate(-45)" style="fill:#aab2a7"/><path d="M0,0H398.09C434.48,0,452,44.61,425.35,69.38L250,232.33H0Z" transform="translate(0.32 0)" style="fill:#998498"/><path d="M0,500H398.09c36.39,0,53.91-44.61,27.26-69.38L250,267.67H0Z" transform="translate(0.32 0)" style="fill:#aab2a7"/><path d="M0,232.33H250a23.7,23.7,0,0,0,0,35.34H0Z" transform="translate(0.32 0)" style="fill:#3c3835"/><circle cx="121.65" cy="116.17" r="50" style="fill:#aab2a7"/><circle cx="125.32" cy="383.83" r="50" style="fill:#998498"/><path d="M-.32,500H402c36,0,54.09,43.58,28.61,69.07L278.29,721.39a40.46,40.46,0,0,0,0,57.22L430.61,930.93C456.09,956.42,438,1000,402,1000H-.32Z" transform="translate(0.32 0)" style="fill:#3c3835"/><path d="M-.32,500h0A125.32,125.32,0,0,1,125,625.32V750H0Z" transform="translate(0.32 0)" style="fill:#998498"/><path d="M-.32,1000h0A125.32,125.32,0,0,0,125,874.68V750H0Z" transform="translate(0.32 0)" style="fill:#aab2a7"/><polygon points="499.99 500 499.99 1000 999.99 500 499.99 500" style="fill:#998498"/><path d="M499.67,1000h400a100,100,0,0,0,100-100V500Z" transform="translate(0.32 0)" style="fill:#3c3835"/><path d="M694.21,805.46,864.11,977A78.43,78.43,0,0,0,975,977h0a78.43,78.43,0,0,0,0-110.92c-65.39-65.39-169.91-171.57-169.91-171.57Z" transform="translate(0.32 0)" style="fill:#aab2a7"/></svg>